<mxfile host="app.diagrams.net" agent="Mozilla/5.0 (Windows NT 10.0; Win64; x64; rv:134.0) Gecko/20100101 Firefox/134.0" version="26.0.14">
  <diagram name="Page-1" id="iZ50_ZKtr36XQ8jao6-T">
    <mxGraphModel dx="1035" dy="511" grid="1" gridSize="10" guides="1" tooltips="1" connect="1" arrows="1" fold="1" page="1" pageScale="1" pageWidth="850" pageHeight="1100" math="0" shadow="0">
      <root>
        <mxCell id="0" />
        <mxCell id="1" parent="0" />
        <mxCell id="i10GY2b0_4Jb4vzUvBVZ-111" value="" style="edgeStyle=orthogonalEdgeStyle;rounded=0;orthogonalLoop=1;jettySize=auto;html=1;" edge="1" parent="1" source="i10GY2b0_4Jb4vzUvBVZ-22" target="i10GY2b0_4Jb4vzUvBVZ-92">
          <mxGeometry relative="1" as="geometry" />
        </mxCell>
        <mxCell id="i10GY2b0_4Jb4vzUvBVZ-22" value="&lt;div&gt;START&lt;/div&gt;&lt;div&gt;( assuming already installed program )&lt;br&gt;&lt;/div&gt;" style="rounded=0;whiteSpace=wrap;html=1;" vertex="1" parent="1">
          <mxGeometry x="20" y="20" width="120" height="60" as="geometry" />
        </mxCell>
        <mxCell id="i10GY2b0_4Jb4vzUvBVZ-92" value="User Input selects from side menu" style="rounded=1;whiteSpace=wrap;html=1;" vertex="1" parent="1">
          <mxGeometry x="180" y="30" width="220" height="40" as="geometry" />
        </mxCell>
        <mxCell id="i10GY2b0_4Jb4vzUvBVZ-101" value="MENU" style="swimlane;horizontal=0;whiteSpace=wrap;html=1;" vertex="1" parent="1">
          <mxGeometry x="430" y="20" width="120" height="140" as="geometry">
            <mxRectangle x="220" y="445" width="40" height="70" as="alternateBounds" />
          </mxGeometry>
        </mxCell>
        <mxCell id="i10GY2b0_4Jb4vzUvBVZ-102" value="&lt;div&gt;Encryption&lt;/div&gt;&lt;div&gt;Types&amp;nbsp;&lt;/div&gt;&lt;div&gt;1 to 3+&lt;br&gt;&lt;/div&gt;" style="text;html=1;align=center;verticalAlign=middle;resizable=0;points=[];autosize=1;strokeColor=#6c8ebf;fillColor=#dae8fc;" vertex="1" parent="i10GY2b0_4Jb4vzUvBVZ-101">
          <mxGeometry x="30" y="70" width="80" height="60" as="geometry" />
        </mxCell>
        <mxCell id="i10GY2b0_4Jb4vzUvBVZ-103" value="Homepage" style="text;html=1;align=center;verticalAlign=middle;resizable=0;points=[];autosize=1;strokeColor=#6c8ebf;fillColor=#dae8fc;" vertex="1" parent="i10GY2b0_4Jb4vzUvBVZ-101">
          <mxGeometry x="25" y="25" width="90" height="30" as="geometry" />
        </mxCell>
        <mxCell id="i10GY2b0_4Jb4vzUvBVZ-105" value="&lt;div&gt;Reads from .txt(s) and/or&amp;nbsp;&lt;/div&gt;&lt;div&gt;.rtf(s) found within App files&lt;br&gt;&lt;/div&gt;" style="rounded=1;whiteSpace=wrap;html=1;" vertex="1" parent="1">
          <mxGeometry x="390" y="220" width="190" height="50" as="geometry" />
        </mxCell>
        <mxCell id="i10GY2b0_4Jb4vzUvBVZ-108" value="&lt;div align=&quot;left&quot;&gt;&#39;Encryption-Type&#39; has ;&lt;br&gt;&lt;/div&gt;&lt;div align=&quot;left&quot;&gt;- Algorithm Class&lt;/div&gt;&lt;div align=&quot;left&quot;&gt;- - ENCRYPTION funct()&lt;/div&gt;&lt;div align=&quot;left&quot;&gt;- - DECRYPTION funct()&lt;/div&gt;&lt;div align=&quot;left&quot;&gt;- - Stat funct() (optional; might not be in final product ) that reads &#39;stats&#39; ( time take, file size last time, etc ) &amp;amp; saves &amp;amp; overwrites a specifc .txt for such.&lt;/div&gt;&lt;div align=&quot;left&quot;&gt;- - Read funct() Which reads the stat .txt and the below blurb text;&lt;br&gt;&lt;/div&gt;&lt;div align=&quot;left&quot;&gt;- &#39;Educational blurb&#39; .txt or .rtf;&lt;br&gt;&lt;/div&gt;" style="rounded=1;whiteSpace=wrap;html=1;align=left;" vertex="1" parent="1">
          <mxGeometry x="20" y="100" width="330" height="170" as="geometry" />
        </mxCell>
        <mxCell id="i10GY2b0_4Jb4vzUvBVZ-107" style="edgeStyle=orthogonalEdgeStyle;rounded=0;orthogonalLoop=1;jettySize=auto;html=1;entryX=0.833;entryY=0.041;entryDx=0;entryDy=0;entryPerimeter=0;" edge="1" parent="1" source="i10GY2b0_4Jb4vzUvBVZ-102">
          <mxGeometry relative="1" as="geometry">
            <mxPoint x="319.8800000000001" y="120.04499999999996" as="targetPoint" />
          </mxGeometry>
        </mxCell>
        <mxCell id="i10GY2b0_4Jb4vzUvBVZ-114" style="edgeStyle=orthogonalEdgeStyle;rounded=0;orthogonalLoop=1;jettySize=auto;html=1;" edge="1" parent="1">
          <mxGeometry relative="1" as="geometry">
            <mxPoint x="450" y="50" as="targetPoint" />
            <mxPoint x="400" y="50" as="sourcePoint" />
          </mxGeometry>
        </mxCell>
        <mxCell id="i10GY2b0_4Jb4vzUvBVZ-116" value="" style="edgeStyle=orthogonalEdgeStyle;rounded=0;orthogonalLoop=1;jettySize=auto;html=1;" edge="1" parent="1" source="i10GY2b0_4Jb4vzUvBVZ-103" target="i10GY2b0_4Jb4vzUvBVZ-105">
          <mxGeometry relative="1" as="geometry">
            <Array as="points">
              <mxPoint x="590" y="60" />
              <mxPoint x="590" y="180" />
              <mxPoint x="460" y="180" />
            </Array>
          </mxGeometry>
        </mxCell>
        <mxCell id="i10GY2b0_4Jb4vzUvBVZ-117" value="" style="endArrow=classic;html=1;rounded=0;entryX=0;entryY=0.75;entryDx=0;entryDy=0;" edge="1" parent="1" target="i10GY2b0_4Jb4vzUvBVZ-105">
          <mxGeometry width="50" height="50" relative="1" as="geometry">
            <mxPoint x="189.99615384615382" y="252.5" as="sourcePoint" />
            <mxPoint x="336.15" y="240" as="targetPoint" />
            <Array as="points" />
          </mxGeometry>
        </mxCell>
        <mxCell id="i10GY2b0_4Jb4vzUvBVZ-118" value="" style="endArrow=classic;html=1;rounded=0;entryX=-0.032;entryY=0.42;entryDx=0;entryDy=0;entryPerimeter=0;" edge="1" parent="1" target="i10GY2b0_4Jb4vzUvBVZ-105">
          <mxGeometry width="50" height="50" relative="1" as="geometry">
            <mxPoint x="49.99615384615382" y="230" as="sourcePoint" />
            <mxPoint x="250" y="235.5" as="targetPoint" />
            <Array as="points" />
          </mxGeometry>
        </mxCell>
        <mxCell id="i10GY2b0_4Jb4vzUvBVZ-121" value="MAIN PANEL" style="swimlane;whiteSpace=wrap;html=1;" vertex="1" parent="1">
          <mxGeometry x="20" y="280" width="570" height="110" as="geometry" />
        </mxCell>
        <mxCell id="i10GY2b0_4Jb4vzUvBVZ-122" value="&lt;div&gt;Statically shows buttons &amp;amp; read-path texts for encryption, decryption,&lt;/div&gt;&lt;div&gt;text ( and possibly images) read from the Read funct()(s), for ( optionally ) statistics,&lt;/div&gt;&lt;div&gt;and the educational blurb, until either A: the usage of encrypion/decryption causes the ( optional ) statistics portion to update, or, the user selects another new menu-item.&lt;br&gt;&lt;/div&gt;" style="rounded=1;whiteSpace=wrap;html=1;" vertex="1" parent="i10GY2b0_4Jb4vzUvBVZ-121">
          <mxGeometry x="10" y="30" width="540" height="70" as="geometry" />
        </mxCell>
        <mxCell id="i10GY2b0_4Jb4vzUvBVZ-123" value="" style="endArrow=classic;html=1;rounded=0;" edge="1" parent="i10GY2b0_4Jb4vzUvBVZ-121">
          <mxGeometry width="50" height="50" relative="1" as="geometry">
            <mxPoint x="50" y="-20" as="sourcePoint" />
            <mxPoint x="50" y="20" as="targetPoint" />
            <Array as="points" />
          </mxGeometry>
        </mxCell>
        <mxCell id="i10GY2b0_4Jb4vzUvBVZ-124" value="" style="endArrow=classic;html=1;rounded=0;" edge="1" parent="i10GY2b0_4Jb4vzUvBVZ-121">
          <mxGeometry width="50" height="50" relative="1" as="geometry">
            <mxPoint x="100" y="-20" as="sourcePoint" />
            <mxPoint x="100" y="20" as="targetPoint" />
            <Array as="points" />
          </mxGeometry>
        </mxCell>
        <mxCell id="i10GY2b0_4Jb4vzUvBVZ-130" value="" style="endArrow=classic;html=1;rounded=0;" edge="1" parent="i10GY2b0_4Jb4vzUvBVZ-121">
          <mxGeometry width="50" height="50" relative="1" as="geometry">
            <mxPoint x="230" y="20" as="sourcePoint" />
            <mxPoint x="230" y="-20" as="targetPoint" />
            <Array as="points" />
          </mxGeometry>
        </mxCell>
        <mxCell id="i10GY2b0_4Jb4vzUvBVZ-131" value="" style="endArrow=classic;html=1;rounded=0;" edge="1" parent="i10GY2b0_4Jb4vzUvBVZ-121">
          <mxGeometry width="50" height="50" relative="1" as="geometry">
            <mxPoint x="170" y="20" as="sourcePoint" />
            <mxPoint x="170" y="-20" as="targetPoint" />
            <Array as="points" />
          </mxGeometry>
        </mxCell>
        <mxCell id="i10GY2b0_4Jb4vzUvBVZ-132" value="" style="endArrow=classic;html=1;rounded=0;" edge="1" parent="i10GY2b0_4Jb4vzUvBVZ-121">
          <mxGeometry width="50" height="50" relative="1" as="geometry">
            <mxPoint x="120" y="20" as="sourcePoint" />
            <mxPoint x="120" y="-20" as="targetPoint" />
            <Array as="points" />
          </mxGeometry>
        </mxCell>
        <mxCell id="i10GY2b0_4Jb4vzUvBVZ-125" value="" style="endArrow=classic;html=1;rounded=0;" edge="1" parent="1">
          <mxGeometry width="50" height="50" relative="1" as="geometry">
            <mxPoint x="170" y="260" as="sourcePoint" />
            <mxPoint x="170" y="300" as="targetPoint" />
            <Array as="points" />
          </mxGeometry>
        </mxCell>
        <mxCell id="i10GY2b0_4Jb4vzUvBVZ-127" value="" style="endArrow=classic;html=1;rounded=0;" edge="1" parent="1">
          <mxGeometry width="50" height="50" relative="1" as="geometry">
            <mxPoint x="220" y="260" as="sourcePoint" />
            <mxPoint x="220" y="300" as="targetPoint" />
            <Array as="points" />
          </mxGeometry>
        </mxCell>
        <mxCell id="i10GY2b0_4Jb4vzUvBVZ-128" value="" style="endArrow=classic;html=1;rounded=0;" edge="1" parent="1">
          <mxGeometry width="50" height="50" relative="1" as="geometry">
            <mxPoint x="400" y="260" as="sourcePoint" />
            <mxPoint x="400" y="300" as="targetPoint" />
            <Array as="points" />
          </mxGeometry>
        </mxCell>
        <mxCell id="i10GY2b0_4Jb4vzUvBVZ-129" value="" style="endArrow=classic;html=1;rounded=0;" edge="1" parent="1">
          <mxGeometry width="50" height="50" relative="1" as="geometry">
            <mxPoint x="560" y="260" as="sourcePoint" />
            <mxPoint x="560" y="300" as="targetPoint" />
            <Array as="points" />
          </mxGeometry>
        </mxCell>
        <mxCell id="i10GY2b0_4Jb4vzUvBVZ-134" value="" style="endArrow=classic;html=1;rounded=0;" edge="1" parent="1">
          <mxGeometry width="50" height="50" relative="1" as="geometry">
            <mxPoint x="355" y="70" as="sourcePoint" />
            <mxPoint x="355" y="290" as="targetPoint" />
            <Array as="points" />
          </mxGeometry>
        </mxCell>
        <mxCell id="i10GY2b0_4Jb4vzUvBVZ-133" value="" style="endArrow=classic;html=1;rounded=0;entryX=0.859;entryY=1.025;entryDx=0;entryDy=0;entryPerimeter=0;exitX=0.614;exitY=0;exitDx=0;exitDy=0;exitPerimeter=0;" edge="1" parent="1" source="i10GY2b0_4Jb4vzUvBVZ-121">
          <mxGeometry width="50" height="50" relative="1" as="geometry">
            <mxPoint x="369" y="269" as="sourcePoint" />
            <mxPoint x="368.98" y="60" as="targetPoint" />
            <Array as="points" />
          </mxGeometry>
        </mxCell>
        <mxCell id="i10GY2b0_4Jb4vzUvBVZ-135" value="&lt;div&gt;Me, praying to&lt;/div&gt;&lt;div&gt;god I&#39;m conveying&lt;/div&gt;&lt;div&gt;this all in a way&lt;/div&gt;&lt;div&gt;that makes even&lt;/div&gt;&lt;div&gt;a lick of sense&lt;br&gt;&lt;/div&gt;" style="shape=umlActor;verticalLabelPosition=bottom;verticalAlign=top;html=1;outlineConnect=0;" vertex="1" parent="1">
          <mxGeometry x="640" y="30" width="30" height="60" as="geometry" />
        </mxCell>
        <mxCell id="i10GY2b0_4Jb4vzUvBVZ-138" value="" style="curved=1;endArrow=classic;html=1;rounded=0;strokeColor=light-dark(#ffff00, #ededed);" edge="1" parent="1">
          <mxGeometry width="50" height="50" relative="1" as="geometry">
            <mxPoint x="650" y="40" as="sourcePoint" />
            <mxPoint x="650" y="40" as="targetPoint" />
            <Array as="points">
              <mxPoint x="640" y="30" />
              <mxPoint x="660" y="20" />
              <mxPoint x="670" y="30" />
              <mxPoint x="660" y="40" />
            </Array>
          </mxGeometry>
        </mxCell>
      </root>
    </mxGraphModel>
  </diagram>
</mxfile>
